<svg width="27" height="28" viewBox="0 0 27 28" fill="none" xmlns="http://www.w3.org/2000/svg">
<path d="M25.621 7.43938C25.3293 6.31481 24.4743 5.42833 23.3901 5.12552C21.4093 4.56348 13.486 4.56348 13.486 4.56348C13.486 4.56348 5.56304 4.56348 3.58226 5.10421C2.51887 5.4067 1.64303 6.31497 1.35135 7.43938C0.830078 9.49336 0.830078 13.7531 0.830078 13.7531C0.830078 13.7531 0.830078 18.0342 1.35135 20.0667C1.64334 21.1911 2.49801 22.0776 3.58241 22.3804C5.5839 22.9426 13.4863 22.9426 13.4863 22.9426C13.4863 22.9426 21.4093 22.9426 23.3901 22.4019C24.4745 22.0993 25.3293 21.2128 25.6213 20.0884C26.1424 18.0342 26.1424 13.7747 26.1424 13.7747C26.1424 13.7747 26.1633 9.49336 25.621 7.43938ZM10.9634 17.6883V9.8178L17.552 13.7531L10.9634 17.6883Z" fill="black" fill-opacity="0.85"/>
</svg>
