<svg width="27" height="28" viewBox="0 0 27 28" fill="none" xmlns="http://www.w3.org/2000/svg">
<g clip-path="url(#clip0)">
<path d="M26.974 8.23208C26.9107 6.74433 26.6787 5.72152 26.3464 4.83523C26.0036 3.89447 25.4761 3.0522 24.7851 2.35202C24.1099 1.64095 23.2924 1.08841 22.3957 0.738425C21.5361 0.393784 20.555 0.153198 19.1204 0.0876025C17.6751 0.0164522 17.2162 0 13.5505 0C9.88473 0 9.42589 0.0164522 7.98592 0.0820473C6.55131 0.147642 5.56502 0.388443 4.7106 0.73287C3.80323 1.08841 2.99104 1.63539 2.31587 2.35202C1.63019 3.0522 1.09759 3.90002 0.759904 4.82989C0.427572 5.72152 0.195578 6.73877 0.132325 8.22652C0.0637162 9.72538 0.0478516 10.2012 0.0478516 14.0027C0.0478516 17.8043 0.0637162 18.2801 0.126969 19.7734C0.190221 21.2611 0.422421 22.284 0.754753 23.1702C1.09759 24.111 1.63019 24.9533 2.31587 25.6534C2.99104 26.3645 3.80859 26.9171 4.70525 27.267C5.56502 27.6117 6.54595 27.8523 7.98077 27.9179C9.42053 27.9837 9.87958 27.9999 13.5453 27.9999C17.2111 27.9999 17.6699 27.9837 19.1099 27.9179C20.5445 27.8523 21.5308 27.6117 22.3852 27.267C24.1997 26.5395 25.6344 25.0518 26.3359 23.1702C26.668 22.2786 26.9002 21.2611 26.9635 19.7734C27.0267 18.2801 27.0426 17.8043 27.0426 14.0027C27.0426 10.2012 27.0372 9.72538 26.974 8.23208ZM24.5426 19.664C24.4845 21.0315 24.263 21.7699 24.0784 22.2622C23.6247 23.482 22.6912 24.4501 21.5149 24.9206C21.0402 25.112 20.323 25.3417 19.0096 25.4017C17.5854 25.4676 17.1583 25.4838 13.5558 25.4838C9.95334 25.4838 9.52087 25.4676 8.10192 25.4017C6.7833 25.3417 6.07125 25.112 5.59655 24.9206C5.01121 24.6962 4.4784 24.3407 4.04594 23.8758C3.59761 23.4217 3.25477 22.8747 3.03843 22.2677C2.85383 21.7754 2.63234 21.0315 2.57444 19.6696C2.51099 18.1927 2.49533 17.7496 2.49533 14.0136C2.49533 10.2777 2.51099 9.82922 2.57444 8.35792C2.63234 6.99047 2.85383 6.25204 3.03843 5.75976C3.25477 5.15253 3.59761 4.6002 4.05129 4.15151C4.48891 3.68657 5.01636 3.33103 5.6019 3.1069C6.07661 2.91546 6.79402 2.68577 8.10728 2.62551C9.53138 2.55992 9.95869 2.54347 13.561 2.54347C17.1688 2.54347 17.596 2.55992 19.0149 2.62551C20.3335 2.68577 21.0456 2.91546 21.5203 3.1069C22.1056 3.33103 22.6384 3.68657 23.0709 4.15151C23.5192 4.60554 23.8621 5.15253 24.0784 5.75976C24.263 6.25204 24.4845 6.99581 24.5426 8.35792C24.6058 9.83478 24.6217 10.2777 24.6217 14.0136C24.6217 17.7496 24.6058 18.1871 24.5426 19.664Z" fill="black" fill-opacity="0.85"/>
<path d="M13.5502 6.80957C9.72104 6.80957 6.61426 10.0312 6.61426 14.0024C6.61426 17.9736 9.72104 21.1952 13.5502 21.1952C17.3795 21.1952 20.4861 17.9736 20.4861 14.0024C20.4861 10.0312 17.3795 6.80957 13.5502 6.80957ZM13.5502 18.6682C11.066 18.6682 9.05102 16.5788 9.05102 14.0024C9.05102 11.426 11.066 9.33658 13.5502 9.33658C16.0345 9.33658 18.0493 11.426 18.0493 14.0024C18.0493 16.5788 16.0345 18.6682 13.5502 18.6682Z" fill="black" fill-opacity="0.85"/>
<path d="M22.3793 6.52587C22.3793 7.45318 21.6542 8.20507 20.7598 8.20507C19.8657 8.20507 19.1406 7.45318 19.1406 6.52587C19.1406 5.59835 19.8657 4.84668 20.7598 4.84668C21.6542 4.84668 22.3793 5.59835 22.3793 6.52587Z" fill="black" fill-opacity="0.85"/>
</g>
<defs>
<clipPath id="clip0">
<rect width="27" height="28" fill="white"/>
</clipPath>
</defs>
</svg>
